<svg width="206" height="36" viewBox="0 0 206 36" fill="#ffffff" xmlns="http://www.w3.org/2000/svg">
<path fill-rule="evenodd" clip-rule="evenodd" d="M7.58292 18.9617L19.1452 6.98194C19.9308 6.16802 20.976 5.72046 22.0902 5.72046C23.2035 5.72046 24.2487 6.16759 25.0335 6.98151L25.9343 7.91487L27.7364 6.04773L26.8356 5.11438C25.57 3.80317 23.8849 3.08105 22.0894 3.08105C20.2947 3.08148 18.6091 3.8036 17.3436 5.11523L5.78125 17.0946L7.58292 18.9617Z" fill="#ffffff"/>
<path fill-rule="evenodd" clip-rule="evenodd" d="M23.0172 10.9378L21.2151 9.07066L9.65319 21.0504C8.02956 22.7327 5.38777 22.7331 3.76455 21.0513C2.14091 19.369 2.14091 16.6315 3.76455 14.9492L13.7414 4.61256L11.9393 2.74585L1.96288 13.0825C-0.654294 15.7942 -0.654294 20.2068 1.96288 22.918C3.2284 24.2292 4.91356 24.9518 6.70825 24.9518C8.50336 24.9518 10.1893 24.2288 11.4549 22.9176L23.0172 10.9378Z" fill="#ffffff"/>
<path fill-rule="evenodd" clip-rule="evenodd" d="M34.5266 13.0822C33.2615 11.7709 31.5763 11.0488 29.7808 11.0488C27.9857 11.0493 26.2997 11.7714 25.0342 13.083L13.4727 25.0624L15.2739 26.9295L26.8362 14.9497C28.4603 13.2675 31.1017 13.2679 32.7249 14.9493C33.51 15.7628 33.9424 16.8458 33.9424 17.9997C33.9424 19.1541 33.51 20.2375 32.7249 21.051L22.7484 31.3876L24.5505 33.2543L34.5266 22.9181C37.1441 20.2064 37.1441 15.7938 34.5266 13.0822Z" fill="#ffffff"/>
<path fill-rule="evenodd" clip-rule="evenodd" d="M28.9058 17.0386L17.3435 29.0184C15.7195 30.7002 13.0781 30.701 11.4549 29.0188L10.554 28.0854L8.75195 29.9526L9.65279 30.8859C10.9183 32.1971 12.6035 32.9193 14.3994 32.9193C16.1941 32.9188 17.8792 32.1967 19.1452 30.8851L30.7075 18.9057L28.9058 17.0386Z" fill="#ffffff"/>
<path fill-rule="evenodd" clip-rule="evenodd" d="M47.0503 21.2225C47.1996 21.9821 47.5495 22.5767 48.0992 23.0051C48.6485 23.4344 49.3713 23.6486 50.2676 23.6486C51.1495 23.6486 51.8313 23.4378 52.3133 23.0157C52.7953 22.5941 53.0361 22.0386 53.0361 21.3492C53.0361 21.0117 52.9717 20.7269 52.8429 20.4949C52.7137 20.2628 52.534 20.066 52.3035 19.9041C52.0721 19.743 51.7874 19.6053 51.4482 19.4931C51.1089 19.3805 50.7287 19.261 50.3078 19.1344L49.2088 18.8182C48.557 18.6354 47.9732 18.414 47.4576 18.1534C46.9416 17.8933 46.5006 17.5873 46.1342 17.2358C45.7679 16.8843 45.4894 16.4801 45.2995 16.0228C45.1095 15.5659 45.0144 15.0346 45.0144 14.4302C45.0144 13.7973 45.1366 13.2138 45.3811 12.6791C45.6252 12.1452 45.9714 11.6875 46.4194 11.3079C46.8673 10.9284 47.41 10.6296 48.0483 10.4111C48.6858 10.1939 49.4049 10.0847 50.206 10.0847C51.7128 10.0847 52.9069 10.4536 53.7897 11.1919C54.6717 11.9306 55.1873 12.9184 55.337 14.156L52.8938 14.3669C52.7441 13.734 52.4458 13.2418 51.9979 12.8903C51.5499 12.5388 50.9256 12.3629 50.1248 12.3629C49.3782 12.3629 48.7945 12.5422 48.374 12.9009C47.9527 13.2597 47.7423 13.7204 47.7423 14.2827C47.7423 14.6061 47.8038 14.8765 47.9261 15.0945C48.0483 15.313 48.2243 15.5025 48.4552 15.664C48.6858 15.826 48.9676 15.9701 49.2999 16.0963C49.6326 16.2229 50.0091 16.3573 50.43 16.4975L51.4687 16.835C52.1197 17.0458 52.7071 17.2672 53.2293 17.4993C53.752 17.7314 54.1966 18.0093 54.5629 18.3328C54.9297 18.6562 55.2115 19.043 55.408 19.4931C55.6049 19.9432 55.7033 20.4987 55.7033 21.1596C55.7033 21.863 55.5676 22.5065 55.2964 23.0897C55.0244 23.6737 54.645 24.1692 54.156 24.5768C53.6674 24.9849 53.0874 25.3015 52.4151 25.5259C51.7431 25.7508 51.0002 25.8638 50.186 25.8638C48.6792 25.8638 47.4236 25.4983 46.4194 24.7668C45.4147 24.0354 44.7974 22.9316 44.5664 21.4546L47.0503 21.2225Z" fill="#ffffff"/>
<path fill-rule="evenodd" clip-rule="evenodd" d="M66.0875 12.4051C65.3549 12.4051 64.6998 12.5458 64.123 12.8263C63.5458 13.1072 63.0573 13.4966 62.6573 13.9947C62.2565 14.4932 61.9509 15.0832 61.7405 15.7632C61.5305 16.4445 61.4254 17.1849 61.4254 17.9848C61.4254 18.7852 61.5337 19.529 61.7511 20.2171C61.9677 20.9048 62.277 21.5011 62.6774 22.0069C63.0774 22.5118 63.5663 22.9083 64.1435 23.1965C64.7199 23.4838 65.375 23.6275 66.108 23.6275C66.8411 23.6275 67.4958 23.491 68.073 23.2173C68.6493 22.9436 69.1383 22.5611 69.5387 22.0693C69.939 21.5784 70.2479 20.9851 70.4649 20.2906C70.682 19.5957 70.7907 18.834 70.7907 18.0061C70.7907 17.1917 70.682 16.4407 70.4649 15.753C70.2479 15.0658 69.939 14.4758 69.5387 13.9845C69.1383 13.4936 68.6461 13.1072 68.0623 12.8263C67.479 12.5458 66.8206 12.4051 66.0875 12.4051ZM66.108 10.127C67.2074 10.127 68.212 10.3203 69.1215 10.7071C70.0305 11.0939 70.8042 11.6349 71.4425 12.3311C72.08 13.0278 72.5751 13.8608 72.9287 14.8311C73.2815 15.8015 73.4579 16.8632 73.4579 18.0163C73.4579 19.2123 73.2712 20.2914 72.8983 21.2546C72.5242 22.2181 71.9922 23.0511 71.2997 23.7541L73.2544 26.1381V26.8764H70.7706L69.4062 25.1469C68.9311 25.3718 68.4217 25.5473 67.8794 25.674C67.3362 25.8006 66.7525 25.864 66.1286 25.864C65.0017 25.864 63.9872 25.6702 63.0848 25.2838C62.1819 24.897 61.4148 24.3555 60.7839 23.6594C60.1525 22.9632 59.664 22.1339 59.3182 21.17C58.9719 20.2069 58.7988 19.1558 58.7988 18.0163C58.7988 16.8632 58.9719 15.8053 59.3182 14.8413C59.664 13.8787 60.1558 13.0486 60.7941 12.3524C61.4316 11.6562 62.202 11.1113 63.1049 10.7173C64.0077 10.3242 65.0087 10.127 66.108 10.127Z" fill="#ffffff"/>
<path fill-rule="evenodd" clip-rule="evenodd" d="M83.1263 23.7331C84.1715 23.7331 84.9858 23.3995 85.5696 22.7314C86.1529 22.0632 86.445 21.0402 86.445 19.6618V10.4226H89.0105V19.7252C89.0105 20.8221 88.8747 21.7606 88.6031 22.5414C88.3311 23.3217 87.9447 23.9618 87.4426 24.4612C86.9405 24.9606 86.3227 25.3261 85.5901 25.5582C84.857 25.7903 84.0358 25.9059 83.1263 25.9059C82.2029 25.9059 81.3784 25.7903 80.6527 25.5582C79.9262 25.3261 79.3121 24.9606 78.81 24.4612C78.3079 23.9618 77.9211 23.3217 77.6491 22.5414C77.3776 21.7606 77.2422 20.8221 77.2422 19.7252V10.4226H79.8077V19.6618C79.8077 21.0402 80.0993 22.0632 80.6831 22.7314C81.2668 23.3995 82.0811 23.7331 83.1263 23.7331Z" fill="#ffffff"/>
<path fill-rule="evenodd" clip-rule="evenodd" d="M96.1961 18.9656H101.021L100.227 16.5608C99.9147 15.6189 99.6641 14.8522 99.4741 14.2618C99.2838 13.671 99.114 13.1508 98.9651 12.7007H98.3342C98.2525 12.9395 98.1709 13.1788 98.0897 13.4177C98.008 13.657 97.9166 13.9243 97.8148 14.2193C97.7127 14.5147 97.6011 14.8522 97.4789 15.2321C97.3566 15.6113 97.2073 16.0546 97.0309 16.5608L96.1961 18.9656ZM91.5742 24.8301L96.7663 10.4221H100.615L105.745 24.8301V25.5683H103.22L101.755 21.2437H95.4224L93.9567 25.5683H91.5742V24.8301Z" fill="#ffffff"/>
<path fill-rule="evenodd" clip-rule="evenodd" d="M111.507 17.3411H113.726C114.704 17.3411 115.474 17.1562 116.037 16.7873C116.6 16.418 116.882 15.8153 116.882 14.9784C116.882 14.1283 116.597 13.5363 116.027 13.2018C115.457 12.8677 114.69 12.7003 113.726 12.7003H111.507V17.3411ZM120.078 25.5679H117.615L113.156 19.6193H111.507V25.5679H108.982V10.4221H113.726C114.472 10.4221 115.182 10.4748 115.854 10.5802C116.525 10.6856 117.133 10.9283 117.676 11.3079C118.829 12.095 119.407 13.2834 119.407 14.8717C119.407 15.5611 119.308 16.1621 119.111 16.6755C118.914 17.1885 118.653 17.6242 118.328 17.9829C118.001 18.3416 117.625 18.6332 117.198 18.8576C116.77 19.0829 116.325 19.2516 115.864 19.3638L120.078 24.8292V25.5679Z" fill="#ffffff"/>
<path fill-rule="evenodd" clip-rule="evenodd" d="M123.336 10.4221H132.803V12.7423H125.84V16.7083H132.315V18.9864H125.84V23.2477H132.946V25.5684H123.336V10.4221Z" fill="#ffffff"/>
<path fill-rule="evenodd" clip-rule="evenodd" d="M138.607 21.2228C138.756 21.9823 139.106 22.5769 139.656 23.0053C140.206 23.4346 140.928 23.6488 141.824 23.6488C142.706 23.6488 143.388 23.438 143.87 23.016C144.352 22.5943 144.593 22.0388 144.593 21.3494C144.593 21.012 144.529 20.7272 144.4 20.4951C144.271 20.2631 144.091 20.0663 143.86 19.9043C143.629 19.7433 143.344 19.6055 143.005 19.4933C142.666 19.3807 142.285 19.2613 141.864 19.1346L140.765 18.8184C140.114 18.6356 139.53 18.4142 139.014 18.1537C138.498 17.8935 138.057 17.5875 137.691 17.236C137.325 16.8845 137.046 16.4803 136.856 16.023C136.666 15.5661 136.571 15.0348 136.571 14.4304C136.571 13.7976 136.693 13.214 136.938 12.6793C137.182 12.1455 137.528 11.6877 137.976 11.3082C138.424 10.9286 138.967 10.6298 139.605 10.4114C140.242 10.1942 140.962 10.085 141.763 10.085C143.269 10.085 144.464 10.4539 145.346 11.1922C146.228 11.9308 146.744 12.9186 146.894 14.1563L144.45 14.3671C144.301 13.7342 144.002 13.2421 143.555 12.8906C143.107 12.5391 142.482 12.3631 141.681 12.3631C140.935 12.3631 140.351 12.5425 139.931 12.9012C139.51 13.2599 139.299 13.7206 139.299 14.2829C139.299 14.6064 139.36 14.8767 139.483 15.0947C139.605 15.3132 139.781 15.5028 140.012 15.6643C140.242 15.8262 140.524 15.9703 140.857 16.0965C141.19 16.2232 141.566 16.3575 141.987 16.4978L143.025 16.8352C143.677 17.046 144.264 17.2675 144.786 17.4995C145.309 17.7316 145.754 18.0096 146.12 18.333C146.486 18.6565 146.768 19.0432 146.965 19.4933C147.162 19.9434 147.26 20.499 147.26 21.1599C147.26 21.8633 147.125 22.5068 146.853 23.0899C146.581 23.6739 146.202 24.1695 145.713 24.5771C145.224 24.9851 144.644 25.3018 143.972 25.5262C143.3 25.751 142.557 25.8641 141.743 25.8641C140.236 25.8641 138.98 25.4985 137.976 24.7671C136.971 24.0356 136.354 22.9318 136.123 21.4548L138.607 21.2228Z" fill="#ffffff"/>
<path fill-rule="evenodd" clip-rule="evenodd" d="M153.471 17.4678H155.914C156.362 17.4678 156.773 17.4295 157.146 17.3526C157.519 17.2761 157.845 17.1473 158.123 16.9658C158.402 16.7848 158.619 16.5408 158.775 16.2339C158.931 15.9275 159.009 15.5509 159.009 15.1046C159.009 14.6448 158.931 14.2584 158.775 13.9447C158.619 13.6311 158.404 13.3837 158.133 13.2022C157.862 13.0207 157.539 12.8919 157.166 12.8154C156.793 12.7389 156.389 12.7003 155.955 12.7003H153.471V17.4678ZM150.926 10.4221H156.26C157.251 10.4221 158.082 10.5416 158.754 10.7808C159.426 11.0197 159.969 11.35 160.383 11.7724C160.797 12.1941 161.096 12.6896 161.279 13.2596C161.462 13.8287 161.554 14.4441 161.554 15.1051C161.554 15.8931 161.428 16.5782 161.177 17.1618C160.926 17.7453 160.563 18.2269 160.088 18.6068C159.613 18.9864 159.036 19.2712 158.357 19.4611C157.678 19.6511 156.912 19.7459 156.057 19.7459H153.471V25.5683H150.926V10.4221Z" fill="#ffffff"/>
<path fill-rule="evenodd" clip-rule="evenodd" d="M166.888 18.9656H171.713L170.919 16.5608C170.606 15.6189 170.355 14.8522 170.165 14.2618C169.975 13.671 169.805 13.1508 169.656 12.7007H169.025C168.944 12.9395 168.862 13.1788 168.781 13.4177C168.699 13.657 168.608 13.9243 168.506 14.2193C168.404 14.5147 168.293 14.8522 168.17 15.2321C168.048 15.6113 167.899 16.0546 167.722 16.5608L166.888 18.9656ZM162.266 24.8301L167.458 10.4221H171.306L176.436 24.8301V25.5683H173.912L172.446 21.2437H166.114L164.648 25.5683H162.266V24.8301Z" fill="#ffffff"/>
<path fill-rule="evenodd" clip-rule="evenodd" d="M191.949 21.5606C191.719 22.1514 191.417 22.7073 191.044 23.2288C190.67 23.7503 190.219 24.2072 189.69 24.5974C189.16 24.9876 188.546 25.2961 187.847 25.5231C187.148 25.7501 186.371 25.864 185.516 25.864C184.43 25.864 183.442 25.6668 182.553 25.2728C181.665 24.8796 180.906 24.3343 180.277 23.6385C179.649 22.9419 179.163 22.1127 178.821 21.1492C178.479 20.186 178.309 19.1418 178.309 18.0163C178.309 16.8917 178.479 15.8474 178.821 14.8838C179.163 13.9207 179.652 13.0873 180.287 12.3838C180.922 11.6813 181.685 11.1287 182.574 10.7284C183.463 10.3271 184.457 10.127 185.557 10.127C187.158 10.127 188.499 10.5142 189.578 11.2873C190.657 12.0604 191.42 13.0873 191.868 14.367L189.283 14.894C188.929 14.1209 188.437 13.5123 187.806 13.0694C187.175 12.6265 186.412 12.4051 185.516 12.4051C184.797 12.4051 184.155 12.5488 183.592 12.8361C183.029 13.1234 182.553 13.5191 182.167 14.0236C181.78 14.5277 181.484 15.1231 181.281 15.81C181.078 16.4964 180.976 17.2317 180.976 18.0163C180.976 18.8149 181.081 19.554 181.291 20.2336C181.501 20.9137 181.807 21.5015 182.207 21.9992C182.608 22.4965 183.093 22.885 183.663 23.1651C184.233 23.4456 184.885 23.5858 185.617 23.5858C186.568 23.5858 187.351 23.3465 187.969 22.8684C188.587 22.3902 189.065 21.8067 189.404 21.1173L191.949 21.5606Z" fill="#ffffff"/>
<mask id="mask0_301_4417" style="mask-type:alpha" maskUnits="userSpaceOnUse" x="195" y="10" width="11" height="16">
<path d="M195.391 10.4221H205.001V25.5684H195.391V10.4221Z" fill="#ffffff"/>
</mask>
<g mask="url(#mask0_301_4417)">
<path fill-rule="evenodd" clip-rule="evenodd" d="M195.391 10.4221H204.858V12.7423H197.895V16.7083H204.369V18.9864H197.895V23.2477H205.001V25.5684H195.391V10.4221Z" fill="#ffffff"/>
</g>
</svg>
