<svg xmlns="http://www.w3.org/2000/svg" xmlns:xlink="http://www.w3.org/1999/xlink" width="3000" zoomAndPan="magnify" viewBox="0 0 2250 525.000007" height="700" preserveAspectRatio="xMidYMid meet" version="1.0"><defs><g/><clipPath id="84c31e92f7"><path d="M 2.140625 65.414062 L 395.140625 65.414062 L 395.140625 458.414062 L 2.140625 458.414062 Z M 2.140625 65.414062 " clip-rule="nonzero"/></clipPath><clipPath id="77078ab04c"><path d="M 198.734375 65.414062 C 90.160156 65.414062 2.140625 153.433594 2.140625 262.007812 C 2.140625 370.582031 90.160156 458.605469 198.734375 458.605469 C 307.308594 458.605469 395.332031 370.582031 395.332031 262.007812 C 395.332031 153.433594 307.320312 65.414062 198.734375 65.414062 Z M 198.734375 390.929688 C 127.539062 390.929688 69.816406 333.214844 69.816406 262.007812 C 69.816406 190.804688 127.53125 133.089844 198.734375 133.089844 C 269.941406 133.089844 327.65625 190.804688 327.65625 262.007812 C 327.65625 333.214844 269.933594 390.929688 198.734375 390.929688 Z M 198.734375 390.929688 " clip-rule="nonzero"/></clipPath><linearGradient x1="0" gradientTransform="matrix(0.85884, 0, 0, 0.85884, 2.138768, 65.412176)" y1="228.912" x2="457.595693" gradientUnits="userSpaceOnUse" y2="228.912" id="2f0930ec73"><stop stop-opacity="1" stop-color="rgb(48.999023%, 95.298767%, 57.598877%)" offset="0"/><stop stop-opacity="1" stop-color="rgb(49.017334%, 95.301819%, 57.485962%)" offset="0.015625"/><stop stop-opacity="1" stop-color="rgb(49.055481%, 95.307922%, 57.258606%)" offset="0.03125"/><stop stop-opacity="1" stop-color="rgb(49.092102%, 95.314026%, 57.032776%)" offset="0.046875"/><stop stop-opacity="1" stop-color="rgb(49.130249%, 95.321655%, 56.806946%)" offset="0.0625"/><stop stop-opacity="1" stop-color="rgb(49.16687%, 95.327759%, 56.57959%)" offset="0.078125"/><stop stop-opacity="1" stop-color="rgb(49.205017%, 95.333862%, 56.35376%)" offset="0.09375"/><stop stop-opacity="1" stop-color="rgb(49.243164%, 95.339966%, 56.126404%)" offset="0.109375"/><stop stop-opacity="1" stop-color="rgb(49.279785%, 95.346069%, 55.900574%)" offset="0.125"/><stop stop-opacity="1" stop-color="rgb(49.317932%, 95.352173%, 55.674744%)" offset="0.140625"/><stop stop-opacity="1" stop-color="rgb(49.354553%, 95.358276%, 55.447388%)" offset="0.15625"/><stop stop-opacity="1" stop-color="rgb(49.3927%, 95.36438%, 55.221558%)" offset="0.171875"/><stop stop-opacity="1" stop-color="rgb(49.429321%, 95.370483%, 54.994202%)" offset="0.1875"/><stop stop-opacity="1" stop-color="rgb(49.467468%, 95.376587%, 54.768372%)" offset="0.203125"/><stop stop-opacity="1" stop-color="rgb(49.504089%, 95.384216%, 54.542542%)" offset="0.21875"/><stop stop-opacity="1" stop-color="rgb(49.542236%, 95.39032%, 54.315186%)" offset="0.234375"/><stop stop-opacity="1" stop-color="rgb(49.580383%, 95.396423%, 54.089355%)" offset="0.25"/><stop stop-opacity="1" stop-color="rgb(49.617004%, 95.402527%, 53.862%)" offset="0.265625"/><stop stop-opacity="1" stop-color="rgb(49.655151%, 95.40863%, 53.636169%)" offset="0.28125"/><stop stop-opacity="1" stop-color="rgb(49.691772%, 95.414734%, 53.410339%)" offset="0.296875"/><stop stop-opacity="1" stop-color="rgb(49.729919%, 95.420837%, 53.182983%)" offset="0.3125"/><stop stop-opacity="1" stop-color="rgb(49.766541%, 95.426941%, 52.957153%)" offset="0.328125"/><stop stop-opacity="1" stop-color="rgb(49.804688%, 95.433044%, 52.729797%)" offset="0.34375"/><stop stop-opacity="1" stop-color="rgb(49.842834%, 95.439148%, 52.503967%)" offset="0.359375"/><stop stop-opacity="1" stop-color="rgb(49.879456%, 95.445251%, 52.276611%)" offset="0.375"/><stop stop-opacity="1" stop-color="rgb(49.917603%, 95.452881%, 52.050781%)" offset="0.390625"/><stop stop-opacity="1" stop-color="rgb(49.954224%, 95.458984%, 51.824951%)" offset="0.40625"/><stop stop-opacity="1" stop-color="rgb(49.992371%, 95.465088%, 51.597595%)" offset="0.421875"/><stop stop-opacity="1" stop-color="rgb(50.028992%, 95.471191%, 51.371765%)" offset="0.4375"/><stop stop-opacity="1" stop-color="rgb(50.067139%, 95.477295%, 51.144409%)" offset="0.453125"/><stop stop-opacity="1" stop-color="rgb(50.10376%, 95.483398%, 50.918579%)" offset="0.46875"/><stop stop-opacity="1" stop-color="rgb(50.141907%, 95.489502%, 50.692749%)" offset="0.484375"/><stop stop-opacity="1" stop-color="rgb(50.180054%, 95.495605%, 50.465393%)" offset="0.5"/><stop stop-opacity="1" stop-color="rgb(50.216675%, 95.501709%, 50.239563%)" offset="0.515625"/><stop stop-opacity="1" stop-color="rgb(50.254822%, 95.507812%, 50.012207%)" offset="0.53125"/><stop stop-opacity="1" stop-color="rgb(50.291443%, 95.515442%, 49.786377%)" offset="0.546875"/><stop stop-opacity="1" stop-color="rgb(50.32959%, 95.521545%, 49.560547%)" offset="0.5625"/><stop stop-opacity="1" stop-color="rgb(50.366211%, 95.527649%, 49.333191%)" offset="0.578125"/><stop stop-opacity="1" stop-color="rgb(50.404358%, 95.533752%, 49.107361%)" offset="0.59375"/><stop stop-opacity="1" stop-color="rgb(50.442505%, 95.539856%, 48.880005%)" offset="0.609375"/><stop stop-opacity="1" stop-color="rgb(50.479126%, 95.545959%, 48.654175%)" offset="0.625"/><stop stop-opacity="1" stop-color="rgb(50.517273%, 95.552063%, 48.428345%)" offset="0.640625"/><stop stop-opacity="1" stop-color="rgb(50.553894%, 95.558167%, 48.200989%)" offset="0.65625"/><stop stop-opacity="1" stop-color="rgb(50.592041%, 95.56427%, 47.975159%)" offset="0.671875"/><stop stop-opacity="1" stop-color="rgb(50.628662%, 95.570374%, 47.747803%)" offset="0.6875"/><stop stop-opacity="1" stop-color="rgb(50.666809%, 95.576477%, 47.521973%)" offset="0.703125"/><stop stop-opacity="1" stop-color="rgb(50.704956%, 95.584106%, 47.296143%)" offset="0.71875"/><stop stop-opacity="1" stop-color="rgb(50.741577%, 95.59021%, 47.068787%)" offset="0.734375"/><stop stop-opacity="1" stop-color="rgb(50.779724%, 95.596313%, 46.842957%)" offset="0.75"/><stop stop-opacity="1" stop-color="rgb(50.816345%, 95.602417%, 46.615601%)" offset="0.765625"/><stop stop-opacity="1" stop-color="rgb(50.854492%, 95.608521%, 46.389771%)" offset="0.78125"/><stop stop-opacity="1" stop-color="rgb(50.891113%, 95.614624%, 46.16394%)" offset="0.796875"/><stop stop-opacity="1" stop-color="rgb(50.92926%, 95.620728%, 45.936584%)" offset="0.8125"/><stop stop-opacity="1" stop-color="rgb(50.965881%, 95.626831%, 45.710754%)" offset="0.828125"/><stop stop-opacity="1" stop-color="rgb(51.004028%, 95.632935%, 45.483398%)" offset="0.84375"/><stop stop-opacity="1" stop-color="rgb(51.042175%, 95.639038%, 45.257568%)" offset="0.859375"/><stop stop-opacity="1" stop-color="rgb(51.078796%, 95.645142%, 45.030212%)" offset="0.875"/><stop stop-opacity="1" stop-color="rgb(51.116943%, 95.652771%, 44.804382%)" offset="0.890625"/><stop stop-opacity="1" stop-color="rgb(51.153564%, 95.658875%, 44.578552%)" offset="0.90625"/><stop stop-opacity="1" stop-color="rgb(51.191711%, 95.664978%, 44.351196%)" offset="0.921875"/><stop stop-opacity="1" stop-color="rgb(51.228333%, 95.671082%, 44.125366%)" offset="0.9375"/><stop stop-opacity="1" stop-color="rgb(51.266479%, 95.677185%, 43.89801%)" offset="0.953125"/><stop stop-opacity="1" stop-color="rgb(51.304626%, 95.683289%, 43.67218%)" offset="0.96875"/><stop stop-opacity="1" stop-color="rgb(51.341248%, 95.689392%, 43.44635%)" offset="0.984375"/><stop stop-opacity="1" stop-color="rgb(51.379395%, 95.695496%, 43.218994%)" offset="1"/></linearGradient></defs><g fill="#ffffff" fill-opacity="1"><g transform="translate(540.93739, 388.509932)"><g><path d="M 209.96875 -206.390625 L 76.921875 -206.390625 L 76.921875 -153.6875 L 199.21875 -153.6875 L 199.21875 -109.328125 L 76.921875 -109.328125 L 76.921875 -44.34375 L 215.9375 -44.34375 L 215.9375 0 L 25.578125 0 L 25.578125 -250.734375 L 209.96875 -250.734375 Z M 209.96875 -206.390625 "/></g></g><g transform="translate(772.231795, 388.509932)"><g><path d="M 183.53125 -67.71875 C 180.800781 -46 172.101562 -28.457031 157.4375 -15.09375 C 142.769531 -1.726562 123.15625 4.953125 98.59375 4.953125 C 70.84375 4.953125 49.601562 -3.289062 34.875 -19.78125 C 20.15625 -36.269531 12.796875 -58.898438 12.796875 -87.671875 C 12.796875 -121.785156 20.554688 -147.484375 36.078125 -164.765625 C 51.597656 -182.054688 73.515625 -190.703125 101.828125 -190.703125 C 123.890625 -190.703125 142.59375 -184.671875 157.9375 -172.609375 C 173.289062 -160.554688 181.9375 -142.820312 183.875 -119.40625 L 134.234375 -119.40625 C 132.421875 -129.75 128.785156 -137.363281 123.328125 -142.25 C 117.867188 -147.144531 110.703125 -149.59375 101.828125 -149.59375 C 89.316406 -149.59375 79.734375 -144.644531 73.078125 -134.75 C 66.429688 -124.851562 63.109375 -111.832031 63.109375 -95.6875 C 63.109375 -72.375 66.488281 -56.484375 73.25 -48.015625 C 80.019531 -39.546875 89.207031 -35.3125 100.8125 -35.3125 C 110.132812 -35.3125 117.804688 -38.519531 123.828125 -44.9375 C 129.859375 -51.363281 133.210938 -58.957031 133.890625 -67.71875 Z M 183.53125 -67.71875 "/></g></g><g transform="translate(967.194556, 388.509932)"><g><path d="M 151.46875 -92.953125 C 151.46875 -110.691406 147.800781 -124.566406 140.46875 -134.578125 C 133.132812 -144.585938 122.070312 -149.59375 107.28125 -149.59375 C 93.53125 -149.59375 82.726562 -144.898438 74.875 -135.515625 C 67.03125 -126.140625 63.109375 -111.953125 63.109375 -92.953125 C 63.109375 -74.304688 66.914062 -60.207031 74.53125 -50.65625 C 82.15625 -41.101562 93.070312 -36.328125 107.28125 -36.328125 C 121.957031 -36.328125 132.988281 -41.273438 140.375 -51.171875 C 147.769531 -61.066406 151.46875 -74.992188 151.46875 -92.953125 Z M 201.78125 -92.953125 C 201.78125 -62.597656 193.050781 -38.691406 175.59375 -21.234375 C 158.144531 -3.773438 135.375 4.953125 107.28125 4.953125 C 79.65625 4.953125 57 -3.71875 39.3125 -21.0625 C 21.632812 -38.40625 12.796875 -62.367188 12.796875 -92.953125 C 12.796875 -123.773438 21.632812 -147.769531 39.3125 -164.9375 C 57 -182.113281 79.65625 -190.703125 107.28125 -190.703125 C 135.601562 -190.703125 158.429688 -181.914062 175.765625 -164.34375 C 193.109375 -146.769531 201.78125 -122.972656 201.78125 -92.953125 Z M 201.78125 -92.953125 "/></g></g><g transform="translate(1181.772991, 388.509932)"><g><path d="M 72.828125 0 L 23.875 0 L 23.875 -250.734375 L 72.828125 -250.734375 Z M 72.828125 0 "/></g></g><g transform="translate(1278.486802, 388.509932)"><g><path d="M 151.46875 -92.953125 C 151.46875 -110.691406 147.800781 -124.566406 140.46875 -134.578125 C 133.132812 -144.585938 122.070312 -149.59375 107.28125 -149.59375 C 93.53125 -149.59375 82.726562 -144.898438 74.875 -135.515625 C 67.03125 -126.140625 63.109375 -111.953125 63.109375 -92.953125 C 63.109375 -74.304688 66.914062 -60.207031 74.53125 -50.65625 C 82.15625 -41.101562 93.070312 -36.328125 107.28125 -36.328125 C 121.957031 -36.328125 132.988281 -41.273438 140.375 -51.171875 C 147.769531 -61.066406 151.46875 -74.992188 151.46875 -92.953125 Z M 201.78125 -92.953125 C 201.78125 -62.597656 193.050781 -38.691406 175.59375 -21.234375 C 158.144531 -3.773438 135.375 4.953125 107.28125 4.953125 C 79.65625 4.953125 57 -3.71875 39.3125 -21.0625 C 21.632812 -38.40625 12.796875 -62.367188 12.796875 -92.953125 C 12.796875 -123.773438 21.632812 -147.769531 39.3125 -164.9375 C 57 -182.113281 79.65625 -190.703125 107.28125 -190.703125 C 135.601562 -190.703125 158.429688 -181.914062 175.765625 -164.34375 C 193.109375 -146.769531 201.78125 -122.972656 201.78125 -92.953125 Z M 201.78125 -92.953125 "/></g></g><g transform="translate(1493.065237, 388.509932)"><g><path d="M 130.484375 -90.0625 C 124.460938 -85.851562 112.75 -82.5 95.34375 -80 C 80.789062 -77.945312 71.269531 -74.675781 66.78125 -70.1875 C 62.289062 -65.695312 60.046875 -59.753906 60.046875 -52.359375 C 60.046875 -44.972656 62.429688 -39.398438 67.203125 -35.640625 C 71.984375 -31.890625 77.671875 -30.015625 84.265625 -30.015625 C 96.773438 -30.015625 107.601562 -33.507812 116.75 -40.5 C 125.90625 -47.5 130.484375 -56.226562 130.484375 -66.6875 Z M 178.25 -36.328125 C 178.25 -27.796875 179.039062 -21.113281 180.625 -16.28125 C 182.21875 -11.457031 185.003906 -8.472656 188.984375 -7.328125 L 188.984375 0 L 136.625 0 C 134.351562 -6.25 132.757812 -13.582031 131.84375 -22 C 115.925781 -4.03125 95.234375 4.953125 69.765625 4.953125 C 52.140625 4.953125 37.953125 0.0625 27.203125 -9.71875 C 16.460938 -19.5 11.09375 -32.691406 11.09375 -49.296875 C 11.09375 -65.210938 15.78125 -78.34375 25.15625 -88.6875 C 34.539062 -99.039062 48.554688 -105.582031 67.203125 -108.3125 L 112.921875 -114.96875 C 119.171875 -115.875 123.660156 -117.601562 126.390625 -120.15625 C 129.117188 -122.71875 130.484375 -125.988281 130.484375 -129.96875 C 130.484375 -137.132812 127.867188 -142.566406 122.640625 -146.265625 C 117.410156 -149.960938 109.394531 -151.8125 98.59375 -151.8125 C 87.332031 -151.8125 79.113281 -149.765625 73.9375 -145.671875 C 68.769531 -141.578125 65.5625 -134.921875 64.3125 -125.703125 L 17.0625 -125.703125 C 19.445312 -148.335938 27.148438 -164.828125 40.171875 -175.171875 C 53.191406 -185.523438 73.972656 -190.703125 102.515625 -190.703125 C 125.484375 -190.703125 143.847656 -186.09375 157.609375 -176.875 C 171.367188 -167.664062 178.25 -154.363281 178.25 -136.96875 Z M 178.25 -36.328125 "/></g></g><g transform="translate(1692.633416, 388.509932)"><g><path d="M 63.109375 -91.59375 C 63.109375 -75.21875 66.691406 -61.742188 73.859375 -51.171875 C 81.023438 -40.597656 90.800781 -35.3125 103.1875 -35.3125 C 116.945312 -35.3125 127.609375 -40.171875 135.171875 -49.890625 C 142.734375 -59.609375 146.515625 -72.546875 146.515625 -88.703125 C 146.515625 -108.484375 142.988281 -123.375 135.9375 -133.375 C 128.894531 -143.382812 118.4375 -148.390625 104.5625 -148.390625 C 91.476562 -148.390625 81.296875 -143.382812 74.015625 -133.375 C 66.742188 -123.375 63.109375 -109.445312 63.109375 -91.59375 Z M 193.25 0 L 145.5 0 L 145.5 -23.375 L 144.8125 -23.375 C 133.550781 -4.488281 115.582031 4.953125 90.90625 4.953125 C 66.351562 4.953125 47.195312 -4.203125 33.4375 -22.515625 C 19.675781 -40.828125 12.796875 -64.988281 12.796875 -95 C 12.796875 -124.457031 20.015625 -147.769531 34.453125 -164.9375 C 48.898438 -182.113281 67.378906 -190.703125 89.890625 -190.703125 C 113.765625 -190.703125 131.734375 -181.035156 143.796875 -161.703125 L 144.46875 -161.703125 L 144.46875 -250.734375 L 193.25 -250.734375 Z M 193.25 0 "/></g></g><g transform="translate(1909.770418, 388.509932)"><g><path d="M 139.703125 -111.375 C 138.671875 -123.207031 134.800781 -132.703125 128.09375 -139.859375 C 121.382812 -147.023438 112.6875 -150.609375 102 -150.609375 C 78.800781 -150.609375 65.554688 -137.53125 62.265625 -111.375 Z M 187.96875 -54.40625 C 182.28125 -35.1875 172.101562 -20.488281 157.4375 -10.3125 C 142.769531 -0.132812 125.710938 4.953125 106.265625 4.953125 C 75.671875 4.953125 52.300781 -3.488281 36.15625 -20.375 C 20.007812 -37.269531 11.9375 -60.671875 11.9375 -90.578125 C 11.9375 -120.597656 19.523438 -144.789062 34.703125 -163.15625 C 49.890625 -181.519531 72.550781 -190.703125 102.6875 -190.703125 C 129.75 -190.703125 151.066406 -182.113281 166.640625 -164.9375 C 182.222656 -147.769531 190.015625 -122.242188 190.015625 -88.359375 L 190.015625 -79.65625 L 60.890625 -79.65625 C 62.023438 -64.53125 66.457031 -53.1875 74.1875 -45.625 C 81.925781 -38.0625 92.445312 -34.28125 105.75 -34.28125 C 113.707031 -34.28125 120.585938 -36.128906 126.390625 -39.828125 C 132.191406 -43.523438 135.945312 -48.382812 137.65625 -54.40625 Z M 187.96875 -54.40625 "/></g></g><g transform="translate(2110.020883, 388.509932)"><g><path d="M 23.875 -185.921875 L 70.78125 -185.921875 L 70.78125 -153.6875 L 71.46875 -153.6875 C 77.15625 -165.851562 84.035156 -175.0625 92.109375 -181.3125 C 100.179688 -187.570312 110.300781 -190.703125 122.46875 -190.703125 C 125.65625 -190.703125 128.78125 -190.472656 131.84375 -190.015625 L 131.84375 -140.375 C 129.570312 -140.832031 124.910156 -141.0625 117.859375 -141.0625 C 102.617188 -141.0625 91.300781 -137.394531 83.90625 -130.0625 C 76.519531 -122.726562 72.828125 -111.613281 72.828125 -96.71875 L 72.828125 0 L 23.875 0 Z M 23.875 -185.921875 "/></g></g></g><g clip-path="url(#84c31e92f7)"><g clip-path="url(#77078ab04c)"><path fill="url(#2f0930ec73)" d="M 2.140625 65.414062 L 2.140625 458.414062 L 395.140625 458.414062 L 395.140625 65.414062 Z M 2.140625 65.414062 " fill-rule="nonzero"/></g></g></svg>